<mxfile host="app.diagrams.net" modified="2023-07-27T08:53:44.234Z" agent="Mozilla/5.0 (X11; Linux x86_64) AppleWebKit/537.36 (KHTML, like Gecko) Chrome/110.0.0.0 Safari/537.36" etag="dZLyy_uPetcNAVbmOFUj" version="21.6.5" type="device">
  <diagram name="Страница 1" id="0plDkx393OagYTQr4pUm">
    <mxGraphModel dx="2261" dy="677" grid="1" gridSize="10" guides="1" tooltips="1" connect="1" arrows="1" fold="1" page="1" pageScale="1" pageWidth="827" pageHeight="1169" math="0" shadow="0">
      <root>
        <mxCell id="0" />
        <mxCell id="1" parent="0" />
        <object label="&lt;font style=&quot;font-size: 14px;&quot;&gt;Database&lt;/font&gt;" id="jm4nVHNYRZ6yxYc8Tnkr-1">
          <mxCell style="shape=cylinder3;whiteSpace=wrap;html=1;boundedLbl=1;backgroundOutline=1;size=15;" parent="1" vertex="1">
            <mxGeometry x="-490" y="650" width="140" height="80" as="geometry" />
          </mxCell>
        </object>
        <mxCell id="jm4nVHNYRZ6yxYc8Tnkr-2" value="&lt;font style=&quot;font-size: 14px;&quot;&gt;Database&lt;/font&gt;" style="shape=cylinder3;whiteSpace=wrap;html=1;boundedLbl=1;backgroundOutline=1;size=15;" parent="1" vertex="1">
          <mxGeometry x="-160" y="940" width="130" height="80" as="geometry" />
        </mxCell>
        <mxCell id="jm4nVHNYRZ6yxYc8Tnkr-5" value="&lt;h1 align=&quot;center&quot;&gt;Oracle (Ариадна)&lt;br&gt;&lt;/h1&gt;" style="text;html=1;strokeColor=none;fillColor=none;spacing=5;spacingTop=-20;whiteSpace=wrap;overflow=hidden;rounded=0;align=center;" parent="1" vertex="1">
          <mxGeometry x="-190" y="1030" width="190" height="70" as="geometry" />
        </mxCell>
        <mxCell id="jm4nVHNYRZ6yxYc8Tnkr-6" value="&lt;h1 align=&quot;center&quot;&gt;PostgreSQL&lt;br&gt;&lt;/h1&gt;&lt;h1 align=&quot;center&quot;&gt;(Личный кабинет)&lt;br&gt;&lt;/h1&gt;" style="text;html=1;strokeColor=none;fillColor=none;spacing=5;spacingTop=-20;whiteSpace=wrap;overflow=hidden;rounded=0;align=center;" parent="1" vertex="1">
          <mxGeometry x="-515" y="730" width="190" height="110" as="geometry" />
        </mxCell>
        <mxCell id="jm4nVHNYRZ6yxYc8Tnkr-7" value="&lt;font style=&quot;font-size: 24px;&quot;&gt;&lt;b&gt;Frontend&lt;/b&gt;&lt;/font&gt;" style="rounded=1;whiteSpace=wrap;html=1;" parent="1" vertex="1">
          <mxGeometry x="-400" y="80" width="360" height="60" as="geometry" />
        </mxCell>
        <mxCell id="jm4nVHNYRZ6yxYc8Tnkr-8" value="&lt;font style=&quot;font-size: 24px;&quot;&gt;&lt;b&gt;Backend&lt;/b&gt;&lt;/font&gt;" style="rounded=1;whiteSpace=wrap;html=1;" parent="1" vertex="1">
          <mxGeometry x="-790" y="310" width="750" height="60" as="geometry" />
        </mxCell>
        <mxCell id="jm4nVHNYRZ6yxYc8Tnkr-9" value="&lt;font style=&quot;font-size: 24px;&quot;&gt;&lt;b&gt;Adapter&lt;/b&gt;&lt;/font&gt;" style="rounded=1;whiteSpace=wrap;html=1;" parent="1" vertex="1">
          <mxGeometry x="-190" y="370" width="150" height="60" as="geometry" />
        </mxCell>
        <mxCell id="jm4nVHNYRZ6yxYc8Tnkr-12" value="" style="shape=flexArrow;endArrow=classic;startArrow=classic;html=1;rounded=0;entryX=0.624;entryY=1.05;entryDx=0;entryDy=0;entryPerimeter=0;" parent="1" source="jm4nVHNYRZ6yxYc8Tnkr-2" target="jm4nVHNYRZ6yxYc8Tnkr-9" edge="1">
          <mxGeometry width="100" height="100" relative="1" as="geometry">
            <mxPoint x="-226" y="550" as="sourcePoint" />
            <mxPoint x="-126" y="450" as="targetPoint" />
          </mxGeometry>
        </mxCell>
        <mxCell id="jm4nVHNYRZ6yxYc8Tnkr-15" value="" style="shape=flexArrow;endArrow=classic;startArrow=classic;html=1;rounded=0;entryX=0.386;entryY=1.011;entryDx=0;entryDy=0;entryPerimeter=0;exitX=0.748;exitY=0.047;exitDx=0;exitDy=0;exitPerimeter=0;" parent="1" source="jm4nVHNYRZ6yxYc8Tnkr-1" target="jm4nVHNYRZ6yxYc8Tnkr-9" edge="1">
          <mxGeometry width="100" height="100" relative="1" as="geometry">
            <mxPoint x="-380" y="584.5" as="sourcePoint" />
            <mxPoint x="-280" y="484.5" as="targetPoint" />
          </mxGeometry>
        </mxCell>
        <mxCell id="jm4nVHNYRZ6yxYc8Tnkr-16" value="" style="shape=flexArrow;endArrow=classic;startArrow=classic;html=1;rounded=0;entryX=0.458;entryY=1.044;entryDx=0;entryDy=0;entryPerimeter=0;exitX=0.32;exitY=-0.012;exitDx=0;exitDy=0;exitPerimeter=0;" parent="1" source="jm4nVHNYRZ6yxYc8Tnkr-1" target="jm4nVHNYRZ6yxYc8Tnkr-8" edge="1">
          <mxGeometry width="100" height="100" relative="1" as="geometry">
            <mxPoint x="-460" y="500" as="sourcePoint" />
            <mxPoint x="-360" y="400" as="targetPoint" />
          </mxGeometry>
        </mxCell>
        <mxCell id="jm4nVHNYRZ6yxYc8Tnkr-17" value="" style="shape=flexArrow;endArrow=classic;startArrow=classic;html=1;rounded=0;entryX=0.5;entryY=1;entryDx=0;entryDy=0;exitX=0.76;exitY=0.017;exitDx=0;exitDy=0;exitPerimeter=0;" parent="1" source="jm4nVHNYRZ6yxYc8Tnkr-8" target="jm4nVHNYRZ6yxYc8Tnkr-7" edge="1">
          <mxGeometry width="100" height="100" relative="1" as="geometry">
            <mxPoint x="-220" y="300" as="sourcePoint" />
            <mxPoint x="-107.75" y="139.76" as="targetPoint" />
            <Array as="points" />
          </mxGeometry>
        </mxCell>
        <mxCell id="jm4nVHNYRZ6yxYc8Tnkr-19" value="&lt;h1&gt;&lt;span style=&quot;font-weight: normal;&quot;&gt;&lt;font style=&quot;font-size: 18px;&quot;&gt;GraphQL&lt;/font&gt;&lt;/span&gt;&lt;br&gt;&lt;/h1&gt;" style="text;html=1;strokeColor=none;fillColor=none;spacing=5;spacingTop=-20;whiteSpace=wrap;overflow=hidden;rounded=0;align=center;" parent="1" vertex="1">
          <mxGeometry x="-330" y="180" width="120" height="50" as="geometry" />
        </mxCell>
        <mxCell id="jm4nVHNYRZ6yxYc8Tnkr-20" value="&lt;h1 align=&quot;left&quot;&gt;&lt;span style=&quot;font-weight: normal;&quot;&gt;&lt;font style=&quot;font-size: 18px;&quot;&gt;SQL-запросы на чтение данных;&amp;nbsp;&lt;/font&gt;&lt;/span&gt;&lt;/h1&gt;&lt;h1 align=&quot;left&quot;&gt;&lt;span style=&quot;font-weight: normal;&quot;&gt;&lt;font size=&quot;3&quot;&gt;SQL-запросы на выполнение хранимых процедур.&lt;/font&gt;&lt;br&gt;&lt;/span&gt;&lt;/h1&gt;" style="text;html=1;strokeColor=none;fillColor=none;spacing=5;spacingTop=-20;whiteSpace=wrap;overflow=hidden;rounded=0;align=center;" parent="1" vertex="1">
          <mxGeometry x="-80" y="780" width="340" height="119" as="geometry" />
        </mxCell>
        <mxCell id="jm4nVHNYRZ6yxYc8Tnkr-21" value="&lt;h1 align=&quot;left&quot;&gt;&lt;span style=&quot;font-weight: normal;&quot;&gt;&lt;font style=&quot;font-size: 18px;&quot;&gt;ORM SQLAlchemy - запись данных, полученных из Oracle.&lt;/font&gt;&lt;/span&gt;&lt;/h1&gt;" style="text;html=1;strokeColor=none;fillColor=none;spacing=5;spacingTop=-20;whiteSpace=wrap;overflow=hidden;rounded=0;align=center;" parent="1" vertex="1">
          <mxGeometry x="-290" y="570" width="170" height="120" as="geometry" />
        </mxCell>
        <mxCell id="jm4nVHNYRZ6yxYc8Tnkr-22" value="&lt;h1 align=&quot;left&quot;&gt;&lt;span style=&quot;font-weight: normal;&quot;&gt;&lt;font style=&quot;font-size: 18px;&quot;&gt;ORM SQLAlchemy - чтение и запись данных.&lt;/font&gt;&lt;/span&gt;&lt;/h1&gt;" style="text;html=1;strokeColor=none;fillColor=none;spacing=5;spacingTop=-20;whiteSpace=wrap;overflow=hidden;rounded=0;align=center;" parent="1" vertex="1">
          <mxGeometry x="-420" y="380" width="120" height="150" as="geometry" />
        </mxCell>
        <mxCell id="jm4nVHNYRZ6yxYc8Tnkr-23" value="&lt;h1&gt;Краткие пояснения.&lt;br&gt;&lt;/h1&gt;&lt;p&gt;&lt;font style=&quot;font-size: 18px;&quot;&gt;Adapter - &lt;/font&gt;&lt;font style=&quot;font-size: 18px;&quot;&gt;это модуль, который обеспечивает получение данных из Oracle и передачу этих данных на запись в базу PostgreSQL, либо непосредственно в Backend.&amp;nbsp;&amp;nbsp;&lt;/font&gt;&lt;/p&gt;&lt;p&gt;&lt;font style=&quot;font-size: 18px;&quot;&gt;Данные, которые изменяются редко (справочники: медцентры, услуги, прайсы и т.д.) обновляются Adapter-ом периодически, например, 1 раз в 5 минут, в виде фоновой задачи. Соответственно, Backend всегда читает такие данные из базы PostgreSQL.&lt;/font&gt;&lt;/p&gt;&lt;p&gt;&lt;font style=&quot;font-size: 18px;&quot;&gt;Данные, которые требуют гарантированной актуальности и/или изменяются в режиме online Backend получает непосредственно от Adapter-a, который в свою очередь получает их из базы Oracle. Это такие данные, запрос доступных номерков&amp;nbsp; при записи на прием, закрепление номерка за пользователем, текущий баланс, регистрация пользователя (личного кабинета), запрос документов и т.д. &lt;br&gt;&lt;/font&gt;&lt;/p&gt;&lt;p&gt;&lt;font style=&quot;font-size: 18px;&quot;&gt;При необходимости передать данные в Oracle или выполнить какое-либо действие, предусмотренное логикой, реализованной в Oracle (резервированиа номерка, отмена резервирования номерка, передача данных платежа и т.д.), Adapter выполняет запрос на исполнение хранимой в Oracle процедуры. При этом данные передаются в виде входных и выходных параметров хранимой процедуры: входные данные передаются в Oracle, выходные данные передаются из Oracle.&amp;nbsp;&lt;/font&gt;&lt;/p&gt;&lt;p&gt;&lt;font style=&quot;font-size: 18px;&quot;&gt;&lt;br&gt;&lt;/font&gt;&lt;/p&gt;" style="text;html=1;strokeColor=none;fillColor=none;spacing=5;spacingTop=-20;whiteSpace=wrap;overflow=hidden;rounded=0;" parent="1" vertex="1">
          <mxGeometry x="-10" y="70" width="720" height="450" as="geometry" />
        </mxCell>
        <mxCell id="Y6G2b0hOxaFnMyzf0lge-3" value="&lt;span style=&quot;font-size: 24px;&quot;&gt;&lt;b&gt;Payments&lt;/b&gt;&lt;/span&gt;" style="rounded=1;whiteSpace=wrap;html=1;" parent="1" vertex="1">
          <mxGeometry x="-790" y="250" width="150" height="60" as="geometry" />
        </mxCell>
        <mxCell id="Y6G2b0hOxaFnMyzf0lge-5" value="&lt;b style=&quot;&quot;&gt;&lt;font style=&quot;font-size: 18px;&quot;&gt;Платежная система ХХХ&lt;/font&gt;&lt;/b&gt;" style="rounded=1;whiteSpace=wrap;html=1;" parent="1" vertex="1">
          <mxGeometry x="-810" y="80" width="120" height="70" as="geometry" />
        </mxCell>
        <mxCell id="Y6G2b0hOxaFnMyzf0lge-6" value="" style="shape=flexArrow;endArrow=classic;startArrow=classic;html=1;rounded=0;exitX=0.191;exitY=-0.03;exitDx=0;exitDy=0;entryX=0.412;entryY=1.018;entryDx=0;entryDy=0;entryPerimeter=0;exitPerimeter=0;" parent="1" source="Y6G2b0hOxaFnMyzf0lge-3" target="Y6G2b0hOxaFnMyzf0lge-5" edge="1">
          <mxGeometry width="100" height="100" relative="1" as="geometry">
            <mxPoint x="-660" y="270" as="sourcePoint" />
            <mxPoint x="-560" y="170" as="targetPoint" />
          </mxGeometry>
        </mxCell>
        <mxCell id="Y6G2b0hOxaFnMyzf0lge-7" value="&lt;h1&gt;&lt;span style=&quot;font-weight: 400;&quot;&gt;&lt;font style=&quot;font-size: 18px;&quot;&gt;REST&lt;/font&gt;&lt;/span&gt;&lt;/h1&gt;" style="text;html=1;strokeColor=none;fillColor=none;spacing=5;spacingTop=-20;whiteSpace=wrap;overflow=hidden;rounded=0;align=center;" parent="1" vertex="1">
          <mxGeometry x="-760" y="180" width="70" height="40" as="geometry" />
        </mxCell>
        <mxCell id="Y6G2b0hOxaFnMyzf0lge-13" value="&lt;h2 style=&quot;box-sizing: border-box; margin: 0px; line-height: 1.2; padding: 0px; font-family: Montserrat, sans-serif; text-align: left; background-color: rgb(255, 255, 255);&quot;&gt;&lt;span style=&quot;font-size: 24px;&quot;&gt;PHONE&lt;/span&gt;&lt;/h2&gt;&lt;div&gt;&lt;span style=&quot;font-size: 24px;&quot;&gt;&lt;b&gt;auth&lt;/b&gt;&lt;/span&gt;&lt;/div&gt;" style="rounded=1;whiteSpace=wrap;html=1;" parent="1" vertex="1">
          <mxGeometry x="-789" y="370" width="110" height="60" as="geometry" />
        </mxCell>
        <mxCell id="Y6G2b0hOxaFnMyzf0lge-14" value="&lt;b&gt;&lt;font style=&quot;font-size: 18px;&quot;&gt;ucaller.ru&lt;/font&gt;&lt;/b&gt;" style="rounded=1;whiteSpace=wrap;html=1;" parent="1" vertex="1">
          <mxGeometry x="-789" y="580" width="110" height="60" as="geometry" />
        </mxCell>
        <mxCell id="Y6G2b0hOxaFnMyzf0lge-15" value="" style="shape=flexArrow;endArrow=classic;startArrow=classic;html=1;rounded=0;exitX=0.447;exitY=1.017;exitDx=0;exitDy=0;exitPerimeter=0;entryX=0.455;entryY=0.031;entryDx=0;entryDy=0;entryPerimeter=0;" parent="1" edge="1">
          <mxGeometry width="100" height="100" relative="1" as="geometry">
            <mxPoint x="-734.5" y="429" as="sourcePoint" />
            <mxPoint x="-733.5" y="580" as="targetPoint" />
          </mxGeometry>
        </mxCell>
        <mxCell id="Y6G2b0hOxaFnMyzf0lge-16" value="&lt;h1&gt;&lt;span style=&quot;font-weight: 400;&quot;&gt;&lt;font style=&quot;font-size: 18px;&quot;&gt;REST&lt;/font&gt;&lt;/span&gt;&lt;/h1&gt;" style="text;html=1;strokeColor=none;fillColor=none;spacing=5;spacingTop=-20;whiteSpace=wrap;overflow=hidden;rounded=0;align=center;" parent="1" vertex="1">
          <mxGeometry x="-736" y="470" width="70" height="40" as="geometry" />
        </mxCell>
        <mxCell id="OAOq9RToEvKop1smBZ7D-1" value="&lt;font style=&quot;font-size: 24px;&quot;&gt;&lt;b&gt;Mobile APP&lt;/b&gt;&lt;/font&gt;" style="rounded=1;whiteSpace=wrap;html=1;" vertex="1" parent="1">
          <mxGeometry x="-585" y="80" width="130" height="60" as="geometry" />
        </mxCell>
        <mxCell id="OAOq9RToEvKop1smBZ7D-2" value="" style="shape=flexArrow;endArrow=classic;startArrow=classic;html=1;rounded=0;entryX=0.5;entryY=1;entryDx=0;entryDy=0;exitX=0.76;exitY=0.017;exitDx=0;exitDy=0;exitPerimeter=0;" edge="1" parent="1">
          <mxGeometry width="100" height="100" relative="1" as="geometry">
            <mxPoint x="-520.5" y="311" as="sourcePoint" />
            <mxPoint x="-520.5" y="140" as="targetPoint" />
            <Array as="points" />
          </mxGeometry>
        </mxCell>
        <mxCell id="OAOq9RToEvKop1smBZ7D-3" value="&lt;h1&gt;&lt;span style=&quot;font-weight: normal;&quot;&gt;&lt;font style=&quot;font-size: 18px;&quot;&gt;GraphQL&lt;/font&gt;&lt;/span&gt;&lt;br&gt;&lt;/h1&gt;" style="text;html=1;strokeColor=none;fillColor=none;spacing=5;spacingTop=-20;whiteSpace=wrap;overflow=hidden;rounded=0;align=center;" vertex="1" parent="1">
          <mxGeometry x="-533" y="180" width="120" height="50" as="geometry" />
        </mxCell>
      </root>
    </mxGraphModel>
  </diagram>
</mxfile>
